<?xml version="1.0" standalone="no"?>
<!DOCTYPE svg PUBLIC "-//W3C//DTD SVG 20010904//EN"
 "http://www.w3.org/TR/2001/REC-SVG-20010904/DTD/svg10.dtd">
<svg version="1.0" xmlns="http://www.w3.org/2000/svg"
 width="711.000000pt" height="351.000000pt" viewBox="0 0 711.000000 351.000000"
 preserveAspectRatio="xMidYMid meet">

<g transform="translate(0.000000,351.000000) scale(0.100000,-0.100000)"
fill="#000000" stroke="none">
<path d="M1198 2615 c-171 -43 -268 -153 -268 -305 0 -177 113 -281 373 -344
171 -42 232 -82 232 -157 0 -84 -106 -135 -228 -110 -75 16 -121 55 -136 116
l-11 46 -118 -3 -117 -3 3 -54 c7 -138 117 -254 279 -296 67 -18 229 -20 305
-4 71 15 163 65 198 107 58 71 75 118 75 212 -1 75 -4 92 -28 132 -53 91 -142
146 -322 197 -213 61 -260 90 -260 161 0 71 59 111 164 111 87 0 137 -23 169
-79 12 -22 22 -47 22 -56 0 -14 16 -16 120 -16 l120 0 -6 43 c-23 148 -108
248 -250 293 -70 22 -245 27 -316 9z"/>
<path d="M2631 2588 c-32 -83 -424 -1064 -428 -1070 -2 -5 56 -8 131 -8 l134
0 37 95 37 95 221 -2 220 -3 35 -92 35 -93 134 0 c105 0 134 3 130 13 -4 6
-62 154 -131 327 -69 173 -165 414 -213 535 l-88 220 -123 3 c-119 3 -122 2
-131 -20z m220 -517 c32 -84 59 -160 59 -167 0 -11 -29 -14 -150 -14 -82 0
-150 2 -150 5 0 7 139 376 146 387 8 12 15 -3 95 -211z"/>
<path d="M3632 2428 l3 -133 1185 -3 c652 -1 1200 0 1218 3 l32 6 0 129 0 130
-1220 0 -1221 0 3 -132z"/>
<path d="M5464 1861 c-194 -56 -317 -173 -385 -371 -18 -53 -22 -86 -22 -180
1 -103 4 -124 31 -197 35 -95 70 -148 139 -215 154 -148 406 -197 632 -121 61
20 145 72 203 125 189 174 221 525 67 747 -38 56 -132 137 -195 169 -120 61
-338 81 -470 43z m331 -246 c31 -16 74 -49 96 -73 105 -119 107 -321 5 -455
-71 -93 -253 -134 -381 -87 -126 47 -205 168 -205 314 0 119 48 216 137 277
67 46 116 59 209 56 66 -3 92 -9 139 -32z"/>
<path d="M3660 1745 l0 -115 175 0 175 0 0 -435 0 -435 125 0 125 0 0 435 0
435 175 0 175 0 0 115 0 115 -475 0 -475 0 0 -115z"/>
<path d="M880 890 l0 -130 1215 0 1215 0 0 130 0 130 -1215 0 -1215 0 0 -130z"/>
</g>
</svg>
